<?xml version="1.0" encoding="utf-8"?>
<!-- License: PD. Made by undefinedMary Akveo -->
<svg fill="#000000" width="100px" height="100px" viewBox="0 0 24 24" id="pause" data-name="Line Color" xmlns="http://www.w3.org/2000/svg" class="icon line-color"><path id="primary" d="M7,3H9a1,1,0,0,1,1,1V20a1,1,0,0,1-1,1H7a1,1,0,0,1-1-1V4A1,1,0,0,1,7,3Zm8,18h2a1,1,0,0,0,1-1V4a1,1,0,0,0-1-1H15a1,1,0,0,0-1,1V20A1,1,0,0,0,15,21Z" style="fill: none; stroke: red; stroke-linecap: round; stroke-linejoin: round; stroke-width: 2;"></path></svg>